<svg width="3193" height="371" viewBox="0 0 3193 371" fill="none" xmlns="http://www.w3.org/2000/svg">
<path d="M337.408 298.496L352.768 312.32C348.331 317.44 341.846 323.413 333.312 330.24C324.779 337.067 314.027 343.552 301.056 349.696C288.427 355.499 273.408 360.448 256 364.544C238.934 368.64 219.478 370.688 197.632 370.688C163.158 370.688 133.462 365.397 108.544 354.816C83.6271 343.893 63.1471 329.728 47.1044 312.32C31.0617 294.571 19.1151 274.432 11.2644 251.904C3.75506 229.035 0.000391006 205.653 0.000391006 181.76C0.000391006 154.112 4.77906 129.195 14.3364 107.008C23.8937 84.4799 37.3764 65.3653 54.7844 49.6639C72.1924 33.6213 93.0137 21.3333 117.248 12.7999C141.824 4.2666 168.96 -6.10352e-05 198.656 -6.10352e-05C219.136 -6.10352e-05 237.398 2.04793 253.44 6.14392C269.483 10.2399 283.478 15.8719 295.424 23.0399C307.371 30.2079 317.27 38.7413 325.12 48.6399C333.312 58.5386 339.968 69.2906 345.088 80.8959H307.2C304.811 73.7279 300.544 66.7306 294.4 59.9039C288.598 52.7359 280.918 46.4213 271.36 40.9599C262.144 35.4986 251.392 31.0613 239.104 27.6479C227.158 24.2346 213.846 22.5279 199.168 22.5279C177.664 22.5279 157.696 26.4533 139.264 34.3039C121.174 42.1546 105.472 53.0773 92.1604 67.0719C78.8484 81.0666 68.4377 97.7919 60.9284 117.248C53.7604 136.363 50.1764 157.525 50.1764 180.736C50.1764 202.581 53.5897 223.573 60.4164 243.712C67.5844 263.851 77.9951 281.6 91.6484 296.96C105.302 312.32 122.368 324.608 142.848 333.824C163.328 343.04 186.88 347.648 213.504 347.648C261.291 347.648 302.592 331.264 337.408 298.496ZM611.508 259.072H434.868L389.812 364.544H366.26L517.812 6.14392H543.412L710.324 364.544H660.66L611.508 259.072ZM600.756 236.032L520.372 63.4879H518.324L444.596 236.032H600.756ZM732.844 273.92H767.66C768.002 279.723 769.367 286.891 771.756 295.424C774.146 303.616 778.754 311.637 785.58 319.488C792.407 327.339 802.306 334.165 815.276 339.968C828.247 345.429 845.484 348.16 866.988 348.16C893.954 348.16 915.458 343.04 931.5 332.8C947.884 322.56 956.076 306.347 956.076 284.16C956.076 266.411 950.956 252.245 940.716 241.664C930.476 231.083 917.506 222.208 901.804 215.04C886.444 207.531 869.719 200.875 851.628 195.072C833.538 189.269 816.642 182.272 800.94 174.08C785.58 165.888 772.78 155.648 762.54 143.36C752.3 131.072 747.18 114.859 747.18 94.7199C747.18 79.3599 750.252 65.7066 756.396 53.7599C762.882 41.8133 771.415 31.9146 781.996 24.0639C792.919 16.2133 805.378 10.2399 819.372 6.14392C833.708 2.04793 848.727 -6.10352e-05 864.428 -6.10352e-05C879.447 -6.10352e-05 893.783 1.87727 907.436 5.63193C921.431 9.04526 933.89 14.3359 944.812 21.5039C955.735 28.3306 964.78 36.8639 971.948 47.1039C979.116 57.0026 983.724 68.2666 985.772 80.8959H950.956C948.226 60.7573 939.01 46.0799 923.308 36.8639C907.948 27.3066 889.175 22.5279 866.988 22.5279C853.676 22.5279 841.9 24.2346 831.66 27.6479C821.42 30.7199 812.716 34.9866 805.548 40.4479C798.722 45.5679 793.431 51.7119 789.676 58.8799C786.263 66.0479 784.556 73.7279 784.556 81.9199C784.556 96.5973 789.847 108.373 800.428 117.248C811.01 126.123 824.151 133.973 839.852 140.8C855.895 147.627 873.132 154.112 891.564 160.256C910.338 166.4 927.575 174.08 943.276 183.296C959.319 192.171 972.631 203.435 983.212 217.088C993.794 230.4 999.084 247.637 999.084 268.8C999.084 284.16 996.012 298.155 989.868 310.784C983.724 323.413 975.02 334.165 963.756 343.04C952.492 351.915 938.839 358.741 922.796 363.52C907.095 368.299 889.346 370.688 869.548 370.688C850.092 370.688 832.172 368.469 815.788 364.032C799.404 359.253 785.068 352.768 772.78 344.576C760.834 336.043 751.276 325.803 744.108 313.856C737.282 301.909 733.527 288.597 732.844 273.92ZM1215.95 364.544H1169.36V34.3039H1032.14V6.14392H1353.16V34.3039H1215.95V364.544ZM1412.84 364.544V6.14392H1459.43V336.384H1644.26V364.544H1412.84ZM1708.84 6.14392H1940.26V34.3039H1755.43V162.816H1914.15V186.368H1755.43V336.384H1940.26V364.544H1708.84V6.14392ZM2004.84 364.544V6.14392H2051.43V207.872L2243.43 6.14392H2269.03L2138.98 144.896L2298.73 364.544H2245.48L2109.29 176.64L2051.43 238.592V364.544H2004.84ZM2363.34 6.14392H2594.76V34.3039H2409.93V162.816H2568.65V186.368H2409.93V336.384H2594.76V364.544H2363.34V6.14392ZM2659.34 6.14392H2890.76V34.3039H2705.93V162.816H2864.65V186.368H2705.93V336.384H2890.76V364.544H2659.34V6.14392ZM3001.93 215.04V364.544H2955.34V6.14392H3075.15C3094.95 6.14392 3112.18 9.04526 3126.86 14.8479C3141.54 20.6506 3153.66 28.5013 3163.21 38.3999C3173.11 47.9573 3180.45 59.3919 3185.23 72.7039C3190.01 85.6746 3192.4 99.3279 3192.4 113.664C3192.4 128.683 3189.67 142.848 3184.2 156.16C3178.74 169.131 3170.55 180.736 3159.63 190.976C3149.05 200.875 3135.74 208.725 3119.69 214.528C3103.65 220.331 3085.22 223.232 3064.4 223.232C3052.11 223.232 3040.84 222.549 3030.6 221.184C3020.36 219.477 3010.81 217.429 3001.93 215.04ZM3001.93 28.6719V194.048C3009.1 196.779 3017.12 198.656 3026 199.68C3034.87 200.363 3044.6 200.704 3055.18 200.704C3070.54 200.704 3083.68 198.144 3094.6 193.024C3105.53 187.904 3114.57 181.248 3121.74 173.056C3128.91 164.864 3134.03 155.819 3137.1 145.92C3140.51 135.68 3142.22 125.611 3142.22 115.712C3142.22 105.472 3140.34 95.2319 3136.59 84.9919C3133.18 74.4106 3127.88 65.0239 3120.72 56.8319C3113.55 48.2986 3104.5 41.4719 3093.58 36.3519C3082.66 31.2319 3070.03 28.6719 3055.69 28.6719H3001.93Z" fill="#02372E"/>
</svg>
