<svg width="4703" height="5775" viewBox="0 0 4703 5775" fill="none" xmlns="http://www.w3.org/2000/svg">
<rect width="4703" height="5775" fill="#E9BB43"/>
<path d="M2326 775.8C2322 776.067 2308.13 776.867 2295.33 777.667C2275.47 778.867 2241.33 782.6 2226.8 785.134C2152.13 797.934 2083.07 819.8 2016.4 852.067C1961.33 878.733 1905.73 915 1856.67 956.333C1832 977.134 1784.53 1024.87 1764.53 1049C1684.67 1145.53 1632 1251.93 1604.93 1371.67C1590.4 1435.67 1584 1507.13 1587.2 1571.4C1588 1589.13 1588.8 1604.87 1589.07 1606.33C1589.33 1608.6 1588.67 1609 1584.67 1608.73C1562.27 1607.27 1482 1606.87 1465.33 1608.2C1420.67 1611.53 1376.93 1618.33 1335.6 1628.47C1222.13 1656.2 1119.6 1708.33 1027.33 1784.87C998.4 1808.87 951.2 1856.47 928 1885C925.067 1888.6 921.067 1893.27 919.2 1895.53C903.2 1914.87 870.534 1963.13 854.134 1991.8C829.6 2035.13 806 2087.8 792.267 2130.33C780.267 2167.27 767.467 2219.67 763.2 2249C749.467 2343.8 751.334 2434.07 768.8 2520.33C802.134 2684.73 888.8 2834.33 1014 2943.67C1018 2947.13 1023.2 2951.53 1025.33 2953.53C1039.6 2965.8 1065.47 2985.53 1087.33 3000.47C1229.07 3097.8 1401.2 3143.93 1576 3131.53L1588.13 3130.6L1586.93 3143.13C1585.07 3161.8 1585.2 3243.53 1587.07 3264.33C1594.13 3342.73 1612.4 3419.4 1640.8 3489.67C1649.47 3511 1670.93 3555.13 1682.93 3576.47C1743.07 3682.6 1825.07 3770.73 1926.93 3838.73C2023.07 3902.87 2134.67 3944.73 2250 3959.53C2276.67 3963 2319.6 3965.67 2348.93 3965.67C2531.73 3965.67 2703.87 3901.93 2845.33 3781.93C2865.47 3764.87 2916.8 3712.73 2933.73 3692.33C3004.8 3606.2 3052 3517.4 3082.53 3412.33C3094.13 3372.47 3101.73 3333.53 3107.6 3283.67C3110.13 3261.53 3110.53 3251.67 3110.67 3205.67C3110.67 3176.73 3110.27 3148.2 3109.6 3142.47L3108.67 3131.93L3122.27 3132.87C3255.47 3141.4 3378.4 3119.8 3494 3067.67C3662.4 2991.67 3798.53 2856.2 3875.73 2687.67C3912.93 2606.6 3934.93 2520.47 3942.27 2428.33C3944.27 2401.8 3944.27 2340.33 3942.27 2313.67C3933.87 2206.73 3904.53 2105.8 3854.93 2013C3757.07 1829.8 3588.8 1693.67 3390.67 1637.27C3348.67 1625.27 3311.47 1618.07 3261.2 1612.07C3239.2 1609.4 3229.33 1609.13 3182.67 1609C3153.33 1609 3124.93 1609.4 3119.47 1610.07L3109.73 1611L3110.53 1605.4C3110.93 1602.2 3111.87 1585.8 3112.67 1569C3116.4 1478.87 3103.47 1386.6 3074.8 1299.93C3061.33 1259.13 3053.47 1240.07 3033.2 1199C2914.67 959.134 2672.4 796.067 2407.33 777.8C2385.33 776.2 2336.93 775 2326 775.8ZM2396.8 827.667C2413.2 828.733 2429.73 830.2 2433.33 831C2437.07 831.667 2445.73 832.867 2452.67 833.667C2475.2 836.467 2522.93 846.333 2541.33 852.2C2545.73 853.533 2555.07 856.333 2562 858.333C2599.2 869 2661.73 896.333 2703.07 920.067C2748.13 945.934 2800.13 983.934 2828.13 1011.67C2848.67 1031.93 2882.13 1075.67 2904.93 1112.47C2955.07 1192.6 2990.13 1286.07 3004 1376.33C3011.2 1423.8 3011.87 1431.93 3011.87 1488.33C3012 1549.27 3011.6 1554.47 3002 1612.87C3000.53 1621.53 2999.2 1628.87 2998.93 1629.13C2998.8 1629.4 2987.2 1632.87 2973.33 1636.73C2850.13 1672.07 2746 1731.8 2651.47 1821C2642.8 1829.27 2615.07 1858.47 2604 1871C2583.33 1894.47 2558.93 1927.67 2555.2 1937.4C2548.53 1955 2551.07 1975.67 2562 1992.07C2568.27 2001.4 2574 2006.33 2585.33 2012.07C2628.13 2033.93 2678.93 1996.47 2671.33 1948.73C2668.93 1933.8 2659.47 1918.07 2647.87 1909.67L2641.87 1905.4L2647.47 1898.87C2670.4 1871.4 2715.33 1829.93 2751.87 1802.47C2816.13 1754.2 2887.73 1717 2963.87 1692.47C2981.47 1686.87 2984.67 1686.2 2984.67 1688.2C2984.67 1688.87 2981.07 1700.2 2976.8 1713.4C2948.53 1799.13 2905.2 1877.67 2846.27 1950.2C2814.93 1988.73 2755.2 2044.73 2714.53 2073.67C2659.2 2113 2600.67 2143.53 2539.6 2165C2516.8 2173 2479.2 2183.93 2470.67 2185.13L2465.33 2185.93L2465.2 2005.53C2465.07 1821 2463.73 1755.93 2460 1732.33C2451.87 1682.33 2431.47 1637.27 2403.47 1607.93C2368.53 1571.27 2326.27 1546.73 2275.2 1533.8C2244.53 1526.07 2235.2 1525 2196.67 1525C2164.53 1525.13 2152.53 1526.07 2134.67 1529.93C2123.73 1532.2 2123.6 1532.47 2132.67 1535.53C2144.53 1539.67 2153.2 1544.2 2162.93 1551.67C2195.2 1575.8 2218.8 1627.27 2226 1689C2227.2 1699 2227.47 1841.27 2227.2 2267.67C2226.67 2856.87 2226.8 2868.07 2232.13 2904.33C2240.53 2960.47 2261.47 3004.07 2296.27 3037.67C2339.2 3079.27 2393.07 3104.47 2454.67 3111.67C2474.27 3113.93 2509.73 3114.2 2528.67 3112.33C2545.47 3110.6 2567.33 3106.87 2567.33 3105.67C2567.33 3105.13 2565.2 3104.2 2562.67 3103.8C2560.13 3103.27 2552.13 3099.93 2545.07 3096.33C2504.93 3076.2 2478.93 3030.07 2466.4 2956.33C2464.13 2943.4 2464 2930.47 2464 2791.4C2464 2699.4 2464.53 2640.33 2465.2 2640.2C2465.87 2640.2 2467.73 2643.67 2469.33 2647.93C2479.73 2676.2 2508.93 2735.8 2526 2763.67C2544.93 2794.73 2575.47 2837.93 2590.53 2855.13C2592.8 2857.67 2597.33 2863.13 2600.67 2867.13C2611.6 2880.2 2634.67 2904.73 2651.47 2921C2715.6 2982.73 2793.33 3034.87 2875.6 3071.13C2925.47 3093.13 2988.93 3112.6 3040.53 3121.8C3049.07 3123.4 3056.27 3124.73 3056.53 3125C3058.53 3127.13 3059.87 3155.67 3059.87 3202.33C3060 3262.2 3058.93 3275.13 3051.2 3320.33C3046.13 3349.8 3044.8 3356.2 3038 3382.33C3030.27 3412.6 3015.73 3455.53 3006.67 3475.67C3005.6 3477.8 3003.2 3483.53 3001.33 3488.33C2995.33 3503 2974.93 3542.6 2963.6 3561.93C2930.93 3617.27 2899.33 3657.8 2851.47 3705.8C2820.27 3737 2803.2 3751.93 2772.67 3774.6C2682.67 3841.53 2573.07 3888.33 2467.33 3905C2456 3906.87 2442.8 3908.87 2438 3909.67C2394.27 3916.47 2303.2 3916.47 2259.33 3909.67C2218 3903.27 2205.07 3901 2185.33 3896.33C2105.47 3877.4 2027.6 3843.93 1959.33 3799.27C1796.27 3692.33 1683.87 3524.73 1648.13 3335C1639.07 3286.87 1636.67 3259.27 1636.67 3204.2C1636.67 3161.8 1638.27 3131 1640.8 3126.07C1642 3123.93 1644.4 3122.87 1651.2 3121.67C1801.07 3095.13 1941.47 3022.87 2051.07 2915.8C2090.27 2877.53 2136.67 2821.27 2144.13 2803.13C2153.2 2780.6 2147.6 2755.27 2129.47 2737.93C2105.2 2714.73 2069.07 2715 2045.33 2738.87C2019.73 2764.47 2022.4 2807.13 2050.8 2828.47L2058 2833.93L2050.93 2842.2C2047.2 2846.6 2036.27 2858.33 2026.67 2868.2C1965.73 2931 1886.27 2986.2 1807.33 3020.87C1801.07 3023.67 1794.13 3026.73 1791.73 3027.8C1782.53 3031.93 1751.6 3043.27 1734 3048.87C1713.2 3055.53 1666.13 3067.67 1655.33 3069.13L1648.4 3070.07L1649.33 3064.2C1649.87 3061 1651.6 3052.33 1653.33 3045C1679.6 2930.47 1730.4 2829.67 1807.2 2739C1835.47 2705.67 1885.33 2658.6 1916.4 2635.93L1923.33 2630.73V2601C1923.33 2584.07 1922.8 2570.87 1922.13 2570.33C1919.87 2569 1887.33 2592.87 1855.33 2619.53C1830.8 2639.93 1786 2684.6 1765.2 2709.67C1696 2792.47 1647.2 2882.87 1616.8 2984.33C1609.87 3007.4 1601.07 3043.53 1597.87 3062.2C1596.53 3070.2 1594.93 3077.27 1594.4 3077.8C1593.73 3078.33 1585.6 3079.4 1576 3080.2C1495.73 3086.47 1420.53 3080.33 1343.2 3061C1289.33 3047.4 1222.93 3022.2 1202.27 3007.27C1159.87 2976.6 1117.73 2933.67 1088.4 2891C1037.73 2817.67 1009.87 2735.67 1004.67 2645.67C1002.93 2615.67 1002.93 2128.07 1004.67 2096.33C1009.6 2003.27 1039.6 1918.33 1094.27 1842.07C1124.93 1799.27 1168.27 1757 1210.67 1728.33C1224.93 1718.73 1263.07 1703 1302 1690.6C1387.33 1663.53 1475.6 1653.13 1568.67 1659.13C1590.27 1660.47 1590.8 1660.6 1594.13 1664.2C1596.4 1666.73 1598 1670.2 1598.53 1674.47C1599.07 1678.07 1601.87 1691.8 1604.8 1705C1644.8 1883 1744 2037.27 1890 2148.47C1903.33 2158.6 1921.2 2171 1922.4 2171C1922.93 2171 1923.33 2157.27 1923.33 2140.47V2109.93L1911.73 2100.87C1877.2 2074.07 1833.6 2031.93 1805.2 1998.33C1745.6 1927.4 1699.87 1845 1671.6 1757.53C1664.27 1735.13 1652 1687.8 1650.53 1676.47C1649.6 1669.67 1649.73 1669.53 1652.8 1670.2C1654.53 1670.6 1659.6 1671.53 1664 1672.33C1677.33 1674.87 1721.47 1686.73 1739.2 1692.6C1839.2 1725.4 1928.4 1778.73 2008 1853.13C2024 1868.2 2055.87 1902.07 2056.27 1904.73C2056.53 1905.53 2053.87 1908.33 2050.53 1910.73C2038.13 1919.8 2029.07 1937 2027.73 1953.4C2026.4 1971.53 2032.4 1987.67 2045.2 2000.33C2053.2 2008.2 2057.33 2010.87 2067.33 2014.6C2083.47 2020.73 2098.4 2019.8 2114.67 2011.8C2127.6 2005.4 2135.87 1996.87 2142.53 1983C2147.87 1971.93 2148 1971.27 2147.87 1958.33C2147.73 1938.6 2145.6 1934.07 2121.73 1903.27C2012.13 1762.73 1863.2 1667.13 1690.67 1626.6C1676.8 1623.27 1660.8 1619.93 1655.33 1619C1649.87 1618.2 1644.4 1617.13 1643.2 1616.87C1640.53 1616.2 1639.73 1608.87 1638 1567.8C1632 1432.6 1666.27 1295.53 1735.07 1178.73C1766.8 1125 1800.13 1082.07 1846 1036.2C1876.27 1005.8 1895.2 989.267 1924.67 967.4C2017.47 898.467 2126.27 852.333 2237.6 835C2295.33 826.067 2341.07 823.934 2396.8 827.667ZM3260.27 1662.87C3419.87 1682.2 3561.07 1748.73 3675.6 1858.87C3779.2 1958.47 3849.47 2086.33 3880 2231C3883.2 2246.07 3889.87 2293.53 3891.6 2313.67C3893.73 2338.73 3893.73 2404.87 3891.6 2429.67C3880.67 2551.93 3842.53 2661.53 3774.8 2764.73C3751.6 2800.2 3732.4 2823.67 3712.27 2841.4C3665.2 2882.87 3613.07 2917.53 3556 2945.67C3477.47 2984.33 3412.13 3003.27 3313.33 3015.93C3297.87 3017.93 3285.07 3018.33 3240 3018.2C3188.53 3018.2 3183.87 3017.93 3158.67 3014.6C3120.53 3009.4 3087.33 3003.53 3085.2 3001.27C3084.93 3001.13 3082.67 2993.67 3080.13 2985C3061.2 2919 3029.6 2850.33 2989.6 2788.07C2940.93 2712.2 2874.27 2641.27 2802.53 2588.6C2778.67 2571.13 2756.93 2568.33 2734.13 2579.8C2711.47 2591.13 2697.6 2617.93 2701.73 2642.6C2708.8 2684.87 2755.47 2706.73 2792.4 2685C2799.6 2680.87 2812.67 2668.07 2812.67 2665.4C2812.67 2663.13 2816 2664.6 2821.2 2669.27C2865.87 2708.87 2907.73 2756.87 2940.27 2805.67C2963.87 2841 2991.87 2892.6 3004 2922.47C3018 2957.4 3027.73 2984.33 3026.8 2985.4C3025.87 2986.2 3002.8 2978.33 2978.67 2969C2918.67 2945.53 2860.27 2913.13 2809.07 2874.87C2778 2851.53 2760.27 2835.93 2729.33 2805C2692.93 2768.6 2668.93 2739.4 2641.33 2697.67C2579.73 2604.6 2541.73 2498.2 2530.53 2387C2527.73 2358.73 2525.87 2313.4 2526.93 2296.07L2527.73 2281.8L2531.87 2280.47C2534.13 2279.67 2541.07 2277.8 2547.33 2276.33C2571.73 2270.2 2616.8 2254.87 2646 2242.6C2662.27 2235.67 2704.4 2215.27 2720.53 2206.33C2726.67 2203 2740.4 2194.73 2751.2 2188.07C2924.53 2080.47 3048 1908.33 3093.73 1710.33C3096.67 1697.8 3099.73 1683.13 3100.67 1677.67C3102.8 1663.53 3102.93 1663.13 3107.73 1662.33C3119.6 1660.2 3147.33 1659.27 3190 1659.67C3227.47 1660.07 3242.13 1660.73 3260.27 1662.87Z" fill="#02372E"/>
<path d="M1095.01 4930.95L1110.37 4944.78C1105.93 4949.9 1099.45 4955.87 1090.91 4962.7C1082.38 4969.52 1071.63 4976.01 1058.66 4982.15C1046.03 4987.95 1031.01 4992.9 1013.6 4997C996.533 5001.1 977.077 5003.14 955.232 5003.14C920.757 5003.14 891.061 4997.85 866.144 4987.27C841.227 4976.35 820.747 4962.18 804.704 4944.78C788.661 4927.03 776.715 4906.89 768.864 4884.36C761.355 4861.49 757.6 4838.11 757.6 4814.22C757.6 4786.57 762.379 4761.65 771.936 4739.46C781.493 4716.94 794.976 4697.82 812.384 4682.12C829.792 4666.08 850.613 4653.79 874.848 4645.26C899.424 4636.72 926.56 4632.46 956.256 4632.46C976.736 4632.46 994.997 4634.5 1011.04 4638.6C1027.08 4642.7 1041.08 4648.33 1053.02 4655.5C1064.97 4662.66 1074.87 4671.2 1082.72 4681.1C1090.91 4690.99 1097.57 4701.75 1102.69 4713.35H1064.8C1062.41 4706.18 1058.14 4699.19 1052 4692.36C1046.2 4685.19 1038.52 4678.88 1028.96 4673.42C1019.74 4667.95 1008.99 4663.52 996.704 4660.1C984.757 4656.69 971.445 4654.98 956.768 4654.98C935.264 4654.98 915.296 4658.91 896.864 4666.76C878.773 4674.61 863.072 4685.53 849.76 4699.53C836.448 4713.52 826.037 4730.25 818.528 4749.7C811.36 4768.82 807.776 4789.98 807.776 4813.19C807.776 4835.04 811.189 4856.03 818.016 4876.17C825.184 4896.31 835.595 4914.06 849.248 4929.42C862.901 4944.78 879.968 4957.06 900.448 4966.28C920.928 4975.5 944.48 4980.1 971.104 4980.1C1018.89 4980.1 1060.19 4963.72 1095.01 4930.95ZM1369.11 4891.53H1192.47L1147.41 4997H1123.86L1275.41 4638.6H1301.01L1467.92 4997H1418.26L1369.11 4891.53ZM1358.36 4868.49L1277.97 4695.94H1275.92L1202.2 4868.49H1358.36ZM1490.44 4906.38H1525.26C1525.6 4912.18 1526.97 4919.35 1529.36 4927.88C1531.75 4936.07 1536.35 4944.09 1543.18 4951.94C1550.01 4959.79 1559.91 4966.62 1572.88 4972.42C1585.85 4977.89 1603.08 4980.62 1624.59 4980.62C1651.55 4980.62 1673.06 4975.5 1689.1 4965.26C1705.48 4955.02 1713.68 4938.8 1713.68 4916.62C1713.68 4898.87 1708.56 4884.7 1698.32 4874.12C1688.08 4863.54 1675.11 4854.66 1659.4 4847.5C1644.04 4839.99 1627.32 4833.33 1609.23 4827.53C1591.14 4821.73 1574.24 4814.73 1558.54 4806.54C1543.18 4798.34 1530.38 4788.1 1520.14 4775.82C1509.9 4763.53 1504.78 4747.31 1504.78 4727.18C1504.78 4711.82 1507.85 4698.16 1514 4686.22C1520.48 4674.27 1529.01 4664.37 1539.6 4656.52C1550.52 4648.67 1562.98 4642.7 1576.97 4638.6C1591.31 4634.5 1606.33 4632.46 1622.03 4632.46C1637.05 4632.46 1651.38 4634.33 1665.04 4638.09C1679.03 4641.5 1691.49 4646.79 1702.41 4653.96C1713.33 4660.79 1722.38 4669.32 1729.55 4679.56C1736.72 4689.46 1741.32 4700.72 1743.37 4713.35H1708.56C1705.83 4693.21 1696.61 4678.54 1680.91 4669.32C1665.55 4659.76 1646.77 4654.98 1624.59 4654.98C1611.28 4654.98 1599.5 4656.69 1589.26 4660.1C1579.02 4663.18 1570.32 4667.44 1563.15 4672.9C1556.32 4678.02 1551.03 4684.17 1547.28 4691.34C1543.86 4698.5 1542.16 4706.18 1542.16 4714.38C1542.16 4729.05 1547.45 4740.83 1558.03 4749.7C1568.61 4758.58 1581.75 4766.43 1597.45 4773.26C1613.49 4780.08 1630.73 4786.57 1649.16 4792.71C1667.94 4798.86 1685.17 4806.54 1700.88 4815.75C1716.92 4824.63 1730.23 4835.89 1740.81 4849.54C1751.39 4862.86 1756.68 4880.09 1756.68 4901.26C1756.68 4916.62 1753.61 4930.61 1747.47 4943.24C1741.32 4955.87 1732.62 4966.62 1721.36 4975.5C1710.09 4984.37 1696.44 4991.2 1680.4 4995.98C1664.69 5000.75 1646.95 5003.14 1627.15 5003.14C1607.69 5003.14 1589.77 5000.93 1573.39 4996.49C1557 4991.71 1542.67 4985.22 1530.38 4977.03C1518.43 4968.5 1508.88 4958.26 1501.71 4946.31C1494.88 4934.37 1491.13 4921.05 1490.44 4906.38ZM1973.55 4997H1926.96V4666.76H1789.74V4638.6H2110.76V4666.76H1973.55V4997ZM2170.44 4997V4638.6H2217.03V4968.84H2401.86V4997H2170.44ZM2466.44 4638.6H2697.86V4666.76H2513.03V4795.27H2671.75V4818.82H2513.03V4968.84H2697.86V4997H2466.44V4638.6ZM2762.44 4997V4638.6H2809.03V4840.33L3001.03 4638.6H3026.63L2896.58 4777.35L3056.33 4997H3003.08L2866.89 4809.1L2809.03 4871.05V4997H2762.44ZM3120.94 4638.6H3352.36V4666.76H3167.53V4795.27H3326.25V4818.82H3167.53V4968.84H3352.36V4997H3120.94V4638.6ZM3416.94 4638.6H3648.36V4666.76H3463.53V4795.27H3622.25V4818.82H3463.53V4968.84H3648.36V4997H3416.94V4638.6ZM3759.53 4847.5V4997H3712.94V4638.6H3832.75C3852.55 4638.6 3869.78 4641.5 3884.46 4647.3C3899.14 4653.11 3911.25 4660.96 3920.81 4670.86C3930.71 4680.41 3938.05 4691.85 3942.83 4705.16C3947.61 4718.13 3950 4731.78 3950 4746.12C3950 4761.14 3947.27 4775.3 3941.8 4788.62C3936.34 4801.59 3928.15 4813.19 3917.23 4823.43C3906.65 4833.33 3893.33 4841.18 3877.29 4846.98C3861.25 4852.79 3842.82 4855.69 3822 4855.69C3809.71 4855.69 3798.44 4855.01 3788.2 4853.64C3777.96 4851.93 3768.41 4849.89 3759.53 4847.5ZM3759.53 4661.13V4826.5C3766.7 4829.23 3774.72 4831.11 3783.6 4832.14C3792.47 4832.82 3802.2 4833.16 3812.78 4833.16C3828.14 4833.16 3841.28 4830.6 3852.2 4825.48C3863.13 4820.36 3872.17 4813.7 3879.34 4805.51C3886.51 4797.32 3891.63 4788.27 3894.7 4778.38C3898.11 4768.14 3899.82 4758.07 3899.82 4748.17C3899.82 4737.93 3897.94 4727.69 3894.19 4717.45C3890.77 4706.87 3885.48 4697.48 3878.32 4689.29C3871.15 4680.75 3862.1 4673.93 3851.18 4668.81C3840.26 4663.69 3827.63 4661.13 3813.29 4661.13H3759.53Z" fill="#02372E"/>
</svg>
