<svg width="2700" height="700" viewBox="0 0 2700 700" fill="none" xmlns="http://www.w3.org/2000/svg">
<rect width="2700" height="700" fill="#0070DE"/>
<path d="M520.27 161.353C517.737 161.62 509.604 162.553 502.27 163.353C428.537 171.353 343.47 208.02 279.604 259.353C222.67 305.087 191.604 351.487 192.004 390.553C192.137 416.553 203.604 436.153 226.804 449.887C254.404 466.153 294.004 469.22 345.604 459.087C367.737 454.687 425.87 436.42 429.87 432.687C430.537 432.153 434.937 420.42 439.737 406.553C444.67 392.553 450.937 374.687 453.737 366.553C456.67 358.553 458.937 351.62 458.937 351.087C458.937 350.553 449.204 354.82 437.337 360.553C374.537 390.687 312.937 409.753 277.604 410.153C257.737 410.287 250.937 406.02 250.937 393.353C250.937 380.553 261.337 363.62 281.47 343.22C310.404 313.887 352.537 285.22 405.604 258.687C437.07 242.953 457.47 234.42 486.804 224.553C513.337 215.753 529.47 211.62 558.27 206.287C576.67 202.953 580.937 202.553 612.537 202.553C631.47 202.553 646.937 202.42 646.937 202.287C646.937 202.153 634.537 193.753 619.337 183.62C593.737 166.687 590.937 165.22 582.27 163.62C572.937 161.887 529.204 160.287 520.27 161.353Z" fill="#F4FCFF"/>
<path d="M596.937 236.687C570.537 240.02 532.804 250.02 505.604 260.687L488.404 267.487L485.07 276.953C473.47 309.22 460.404 347.753 460.804 348.287C461.204 348.553 468.804 345.22 477.87 340.82C521.604 319.353 570.671 301.62 606.937 293.887C624.537 290.153 650.804 288.953 658.137 291.487C672.137 296.287 672.137 312.153 658.137 333.353C652.004 342.687 627.47 367.753 614.27 378.153C565.07 416.82 482.804 460.287 424.27 478.42C376.804 493.087 320.404 501.22 286.271 498.153C278.937 497.487 272.804 497.087 272.537 497.22C272.404 497.353 285.071 506.02 300.804 516.42C328.004 534.287 329.871 535.22 338.537 536.42C395.737 544.553 466.804 533.22 530.671 505.753C585.604 482.153 633.47 450.287 672.937 410.553C694.804 388.687 706.404 373.487 715.737 354.553C744.004 297.087 718.137 247.487 654.27 237.22C641.204 235.087 612.004 234.82 596.937 236.687Z" fill="#F4FCFF"/>
<path d="M920.004 241.353C908.004 244.153 896.537 250.687 887.47 259.753C878.27 268.953 873.204 278.02 870.27 290.153C862.67 322.553 879.337 352.953 912.004 366.153C919.604 369.22 919.737 369.22 1000.94 369.887C1091.2 370.687 1087.2 370.153 1093.87 379.487C1096.27 382.953 1096.94 385.62 1096.94 392.153C1096.94 401.087 1094.8 405.22 1087.74 410.42C1084.14 413.22 1082.4 413.22 992.937 413.887L901.87 414.553L885.737 435.487C876.937 447.087 869.604 456.82 869.604 457.22C869.604 457.62 922.27 457.887 986.67 457.887C1116.4 457.887 1110.94 458.287 1128.4 449.087C1150.94 437.22 1164.67 412.153 1162.4 387.087C1160.27 363.487 1147.07 344.153 1126.27 333.887C1110.94 326.287 1106.94 325.887 1024.8 325.887H950.004L944.27 322.82C930.004 315.353 929.87 294.02 943.87 286.153L949.337 283.22L1038.4 282.687L1127.6 282.287L1138.67 268.42C1144.8 260.82 1152.4 251.087 1155.74 246.82L1161.74 239.22L1044.67 239.353C949.737 239.487 926.137 239.753 920.004 241.353Z" fill="#F4FCFF"/>
<path d="M1220.27 348.553V457.887H1252.27H1284.27L1284.54 400.287L1284.94 342.687L1343.6 400.287L1402.27 457.753L1442.27 457.887C1475.2 457.887 1481.87 457.62 1480.27 456.153C1479.2 455.22 1471.34 448.153 1462.94 440.42C1454.54 432.687 1428.8 409.62 1405.74 389.087C1349.87 339.487 1352.67 342.153 1354.4 340.953C1355.34 340.42 1384.27 317.353 1418.8 289.887L1481.6 239.887L1438.8 239.487L1396 239.22L1381.74 252.153C1368.27 264.553 1317.07 311.62 1294.67 332.553L1284.27 342.153V290.687V239.22H1252.27H1220.27V348.553Z" fill="#F4FCFF"/>
<path d="M1517.2 244.82C1520.14 248.02 1548.27 277.753 1579.47 311.087L1636.27 371.753V414.82V457.887H1668.27H1700.27V414.82V371.62L1723.2 347.087C1735.74 333.62 1762.67 304.82 1782.8 283.22C1803.07 261.62 1820.4 242.82 1821.47 241.487C1823.2 239.353 1821.47 239.22 1791.2 239.22H1759.2L1734.67 265.487C1721.2 280.02 1700.94 301.887 1689.74 314.287C1678.4 326.553 1668.8 336.42 1668.27 336.287C1667.47 335.887 1651.87 319.087 1590.94 252.953L1578.27 239.22H1544.94H1511.74L1517.2 244.82Z" fill="#F4FCFF"/>
<path d="M1898.27 241.753C1874.54 248.687 1857.34 265.487 1851.47 287.887C1850 292.953 1849.6 307.753 1849.6 348.687C1849.6 408.02 1849.74 409.487 1857.87 424.82C1862.4 433.353 1872.4 443.62 1881.74 448.953C1885.07 450.953 1892.67 453.753 1898.54 455.353C1908.94 457.887 1912.54 458.02 2002.4 457.62C2095.2 457.22 2095.6 457.22 2103.47 454.153C2114 450.153 2122.8 444.42 2129.87 436.82C2137.34 428.82 2140.67 423.22 2144.4 412.553C2147.34 404.42 2147.47 401.353 2148 364.82L2148.54 325.887H2081.34L2014.27 326.02L1998.67 347.887L1982.94 369.887L2032.67 370.153L2082.27 370.553L2082.67 383.22C2083.07 399.353 2080.27 406.287 2070.94 410.82C2065.07 413.887 2064.8 413.887 1998.27 413.887C1931.74 413.887 1931.47 413.887 1925.6 410.82C1921.2 408.687 1918.8 406.287 1916.54 401.887C1913.6 395.887 1913.47 395.62 1913.87 346.42L1914.27 296.953L1918.14 292.02C1920.27 289.22 1923.87 286.153 1926.14 285.22C1929.34 283.887 1951.47 283.353 2021.6 282.82L2112.94 282.153L2129.2 261.62C2138.14 250.42 2145.47 240.82 2145.6 240.153C2145.6 239.62 2091.74 239.22 2026 239.353C1916.14 239.353 1905.6 239.62 1898.27 241.753Z" fill="#F4FCFF"/>
<path d="M2257.87 241.087C2235.47 246.553 2216.8 264.287 2210 286.553C2207.87 293.753 2207.6 300.02 2207.6 347.22C2207.6 404.553 2207.87 407.753 2215.2 422.42C2223.34 438.42 2243.2 453.22 2261.47 456.553C2265.74 457.353 2304.27 457.887 2358.14 457.887C2456.4 457.887 2455.07 458.02 2472 449.753C2482.27 444.687 2494.67 432.953 2499.34 423.887C2507.07 408.42 2507.34 406.287 2508 355.487C2508.27 326.153 2508 304.287 2507.07 297.753C2503.34 269.753 2484.27 248.42 2456.8 241.22C2450.27 239.487 2434.94 239.22 2356.94 239.353C2287.2 239.353 2263.2 239.887 2257.87 241.087ZM2430.27 284.82C2435.6 287.753 2439.6 292.287 2441.47 297.753C2442.4 300.82 2442.94 317.62 2442.94 349.087C2442.94 395.087 2442.94 396.153 2440 401.887C2437.74 406.287 2435.34 408.687 2430.94 410.82C2425.07 413.887 2424.94 413.887 2357.6 413.887C2290.27 413.887 2290.14 413.887 2284.27 410.82C2279.87 408.687 2277.47 406.287 2275.2 401.887C2272.27 395.887 2272.14 395.62 2272.54 346.287C2272.94 298.687 2273.07 296.553 2275.74 293.087C2282.27 284.287 2283.47 283.887 2310.67 283.22C2324.4 282.82 2356 282.553 2380.94 282.553C2420.27 282.553 2426.8 282.953 2430.27 284.82Z" fill="#F4FCFF"/>
</svg>
