<svg width="2013" height="700" viewBox="0 0 2013 700" fill="none" xmlns="http://www.w3.org/2000/svg">
<path d="M233.004 241.354C221.004 244.154 209.537 250.687 200.47 259.754C191.27 268.954 186.204 278.02 183.27 290.154C175.67 322.554 192.337 352.953 225.004 366.154C232.604 369.22 232.737 369.22 313.937 369.887C404.204 370.687 400.204 370.154 406.87 379.487C409.27 382.954 409.937 385.62 409.937 392.154C409.937 401.087 407.804 405.22 400.737 410.42C397.137 413.22 395.404 413.22 305.937 413.887L214.87 414.554L198.737 435.487C189.937 447.087 182.604 456.82 182.604 457.22C182.604 457.62 235.27 457.887 299.67 457.887C429.404 457.887 423.937 458.287 441.404 449.087C463.937 437.22 477.67 412.154 475.404 387.087C473.27 363.487 460.07 344.154 439.27 333.887C423.937 326.287 419.937 325.887 337.804 325.887H263.004L257.27 322.82C243.004 315.354 242.87 294.02 256.87 286.154L262.337 283.22L351.404 282.687L440.604 282.287L451.67 268.42C457.804 260.82 465.404 251.087 468.737 246.82L474.737 239.22L357.67 239.354C262.737 239.487 239.137 239.754 233.004 241.354Z" fill="#0070DE"/>
<path d="M533.271 348.553V457.887H565.271H597.271L597.537 400.287L597.937 342.687L656.604 400.287L715.271 457.753L755.271 457.887C788.204 457.887 794.871 457.62 793.271 456.153C792.204 455.22 784.337 448.153 775.937 440.42C767.537 432.687 741.804 409.62 718.737 389.087C662.871 339.487 665.671 342.153 667.404 340.953C668.337 340.42 697.271 317.353 731.804 289.887L794.604 239.887L751.804 239.487L709.004 239.22L694.737 252.153C681.271 264.553 630.071 311.62 607.671 332.553L597.271 342.153V290.687V239.22H565.271H533.271V348.553Z" fill="#0070DE"/>
<path d="M830.204 244.82C833.137 248.02 861.271 277.753 892.471 311.087L949.271 371.753V414.82V457.887H981.271H1013.27V414.82V371.62L1036.2 347.087C1048.74 333.62 1075.67 304.82 1095.8 283.22C1116.07 261.62 1133.4 242.82 1134.47 241.487C1136.2 239.353 1134.47 239.22 1104.2 239.22H1072.2L1047.67 265.487C1034.2 280.02 1013.94 301.887 1002.74 314.287C991.404 326.553 981.804 336.42 981.271 336.287C980.471 335.887 964.871 319.087 903.937 252.953L891.271 239.22H857.937H824.737L830.204 244.82Z" fill="#0070DE"/>
<path d="M1211.27 241.754C1187.54 248.687 1170.34 265.487 1164.47 287.887C1163 292.954 1162.6 307.754 1162.6 348.687C1162.6 408.02 1162.74 409.487 1170.87 424.82C1175.4 433.354 1185.4 443.62 1194.74 448.954C1198.07 450.954 1205.67 453.754 1211.54 455.354C1221.94 457.887 1225.54 458.02 1315.4 457.62C1408.2 457.22 1408.6 457.22 1416.47 454.154C1427 450.154 1435.8 444.42 1442.87 436.82C1450.34 428.82 1453.67 423.22 1457.4 412.554C1460.34 404.42 1460.47 401.354 1461 364.82L1461.54 325.887H1394.34L1327.27 326.02L1311.67 347.887L1295.94 369.887L1345.67 370.154L1395.27 370.554L1395.67 383.22C1396.07 399.354 1393.27 406.287 1383.94 410.82C1378.07 413.887 1377.8 413.887 1311.27 413.887C1244.74 413.887 1244.47 413.887 1238.6 410.82C1234.2 408.687 1231.8 406.287 1229.54 401.887C1226.6 395.887 1226.47 395.62 1226.87 346.42L1227.27 296.954L1231.14 292.02C1233.27 289.22 1236.87 286.154 1239.14 285.22C1242.34 283.887 1264.47 283.354 1334.6 282.82L1425.94 282.154L1442.2 261.62C1451.14 250.42 1458.47 240.82 1458.6 240.154C1458.6 239.62 1404.74 239.22 1339 239.354C1229.14 239.354 1218.6 239.62 1211.27 241.754Z" fill="#0070DE"/>
<path d="M1570.87 241.087C1548.47 246.553 1529.8 264.287 1523 286.553C1520.87 293.753 1520.6 300.02 1520.6 347.22C1520.6 404.553 1520.87 407.753 1528.2 422.42C1536.34 438.42 1556.2 453.22 1574.47 456.553C1578.74 457.353 1617.27 457.887 1671.14 457.887C1769.4 457.887 1768.07 458.02 1785 449.753C1795.27 444.687 1807.67 432.953 1812.34 423.887C1820.07 408.42 1820.34 406.287 1821 355.487C1821.27 326.153 1821 304.287 1820.07 297.753C1816.34 269.753 1797.27 248.42 1769.8 241.22C1763.27 239.487 1747.94 239.22 1669.94 239.353C1600.2 239.353 1576.2 239.887 1570.87 241.087ZM1743.27 284.82C1748.6 287.753 1752.6 292.287 1754.47 297.753C1755.4 300.82 1755.94 317.62 1755.94 349.087C1755.94 395.087 1755.94 396.153 1753 401.887C1750.74 406.287 1748.34 408.687 1743.94 410.82C1738.07 413.887 1737.94 413.887 1670.6 413.887C1603.27 413.887 1603.14 413.887 1597.27 410.82C1592.87 408.687 1590.47 406.287 1588.2 401.887C1585.27 395.887 1585.14 395.62 1585.54 346.287C1585.94 298.687 1586.07 296.553 1588.74 293.087C1595.27 284.287 1596.47 283.887 1623.67 283.22C1637.4 282.82 1669 282.553 1693.94 282.553C1733.27 282.553 1739.8 282.953 1743.27 284.82Z" fill="#0070DE"/>
</svg>
