<svg width="700" height="700" viewBox="0 0 700 700" fill="none" xmlns="http://www.w3.org/2000/svg">
<rect width="700" height="700" fill="#0070DE"/>
<path d="M410.27 161.353C407.737 161.62 399.604 162.553 392.27 163.353C318.537 171.353 233.47 208.02 169.604 259.353C112.67 305.087 81.6038 351.487 82.0038 390.553C82.1371 416.553 93.6038 436.153 116.804 449.887C144.404 466.153 184.004 469.22 235.604 459.087C257.737 454.687 315.87 436.42 319.87 432.687C320.537 432.153 324.937 420.42 329.737 406.553C334.67 392.553 340.937 374.687 343.737 366.553C346.67 358.553 348.937 351.62 348.937 351.087C348.937 350.553 339.204 354.82 327.337 360.553C264.537 390.687 202.937 409.753 167.604 410.153C147.737 410.287 140.937 406.02 140.937 393.353C140.937 380.553 151.337 363.62 171.47 343.22C200.404 313.887 242.537 285.22 295.604 258.687C327.07 242.953 347.47 234.42 376.804 224.553C403.337 215.753 419.47 211.62 448.27 206.287C466.67 202.953 470.937 202.553 502.537 202.553C521.47 202.553 536.937 202.42 536.937 202.287C536.937 202.153 524.537 193.753 509.337 183.62C483.737 166.687 480.937 165.22 472.27 163.62C462.937 161.887 419.204 160.287 410.27 161.353Z" fill="#F4FCFF"/>
<path d="M486.937 236.687C460.537 240.02 422.804 250.02 395.604 260.687L378.404 267.487L375.07 276.953C363.47 309.22 350.404 347.753 350.804 348.287C351.204 348.553 358.804 345.22 367.87 340.82C411.604 319.353 460.671 301.62 496.937 293.887C514.537 290.153 540.804 288.953 548.137 291.487C562.137 296.287 562.137 312.153 548.137 333.353C542.004 342.687 517.47 367.753 504.27 378.153C455.07 416.82 372.804 460.287 314.27 478.42C266.804 493.087 210.404 501.22 176.271 498.153C168.937 497.487 162.804 497.087 162.537 497.22C162.404 497.353 175.071 506.02 190.804 516.42C218.004 534.287 219.871 535.22 228.537 536.42C285.737 544.553 356.804 533.22 420.671 505.753C475.604 482.153 523.47 450.287 562.937 410.553C584.804 388.687 596.404 373.487 605.737 354.553C634.004 297.087 608.137 247.487 544.27 237.22C531.204 235.087 502.004 234.82 486.937 236.687Z" fill="#F4FCFF"/>
</svg>
